<?xml version="1.0" encoding="utf-8"?>
<!-- Generator: Adobe Illustrator 27.6.1, SVG Export Plug-In . SVG Version: 6.00 Build 0)  -->
<svg version="1.1" id="layer_1" xmlns="http://www.w3.org/2000/svg" xmlns:xlink="http://www.w3.org/1999/xlink" x="0px" y="0px"
	 viewBox="0 0 900 900" style="enable-background:new 0 0 900 900;" xml:space="preserve">
<style type="text/css">
	.st0{fill:#CDCDCD;}
	.st1{fill:#666666;}
	.st2{opacity:0.7;}
	.st3{fill:#FFFFFF;}
	.st4{fill:#F0512F;}
	.st5{opacity:0.5;}
	.st6{opacity:0.3;}
	.st7{fill:#996D68;}
</style>
<g id="logo_00000047029809918014507640000004311677820903156154_">
	<g>
		<path class="st0" d="M410.4190979,557.7062988l27.1300354,33.4013062c0,0-24.2953491,35.4684448-11.7824707,50.8737793
			c12.5128784,15.4052734,50.7649231-2.8803711,50.7649231-2.8803711s-24.2953796,35.4684448-11.7825012,50.8737183
			s50.7648926-2.8803711,50.7648926-2.8803711s-24.2953186,35.4685059-11.7824402,50.8737793
			c12.5128479,15.4052734,50.7649231-2.8803711,50.7649231-2.8803711s-24.2954102,35.4684448-11.7825317,50.8737183
			c12.5128784,15.4053345,50.7649536-2.8803101,50.7649536-2.8803101c7.6827393-1.8695679-1.3347168,8.0791626-6.6755981,21.9198608
			s1.1276855,11.9405518,1.1276855,11.9405518c27.7962646-13.4334106,41.9330444-46.3615112,33.6348877-56.5778809
			c-8.2981567-10.2163086-37.8118286-2.1064453-50.0559692,1.0015259l0,0
			c13.5233154-18.3685913,19.3717041-38.7785645,11.0735474-48.994873
			c-8.2981567-10.2163696-37.5787354-1.819519-49.822876,1.2884521l0,0
			c13.5233154-18.3685303,19.1386108-39.0655518,10.8404541-49.2818604s-37.5787659-1.819458-49.822876,1.2884521l0,0
			c13.5233459-18.3685303,19.1386108-39.0654907,10.8404236-49.2818604
			c-8.2981567-10.2163086-37.8118591-2.1064453-50.0559692,1.0015259
			c21.0931091-25.8845215,13.3834229-46.151062,13.3834229-46.151062l-29.9804688-36.9106445"/>
		<path class="st1" d="M587.2278442,821.8695068c-1.7453003,0-3.7372437-0.5857544-5.2822266-2.2637939
			c-3.7244263-4.0456543-1.7722168-10.8605957,0.3446045-16.3461914c1.8707275-4.8478394,4.125061-9.1618652,6.0180054-12.7125244
			c-12.7599487,4.9451904-38.0922852,12.3241577-49.3493042-1.5352783
			c-9.6109009-11.8328857-2.4142456-31.4094238,4.2171631-44.2626953
			c-13.5495605,4.423645-33.5477295,8.152832-43.1994934-3.7310181
			c-9.6108704-11.8328857-2.4142151-31.4094238,4.2171936-44.2617188c-13.5493469,4.4207764-33.54776,8.152771-43.1994934-3.7320557
			c-9.6109009-11.8328247-2.4147339-31.4084473,4.2169189-44.2617188
			c-13.5495605,4.423645-33.5477295,8.152832-43.1994934-3.7310791
			c-12.489502-15.3768311,3.4048767-43.8327637,9.5572815-53.6143799l-24.9048462-30.6611328
			c-1.6843567-2.0738525-1.3688049-5.1199341,0.7050781-6.8045654c2.0736084-1.6855469,5.1204224-1.3690186,6.8047791,0.704834
			l27.1300964,33.401062c1.3506165,1.6629028,1.4467468,4.0164185,0.2359619,5.7832031
			c-5.7661743,8.4353027-20.354126,34.8287354-12.0184937,45.0913086
			c8.2524719,10.1605225,35.8918457,0.1228027,44.9235535-4.1950073c1.974884-0.9457397,4.3371582-0.4450073,5.7610168,1.2178955
			c1.423584,1.6628418,1.5532532,4.0740356,0.3162537,5.8795776c-5.7662048,8.4353027-20.3536377,34.8276978-12.0182495,45.090271
			c8.2312012,10.1331787,35.8871155,0.1134033,44.9259033-4.1949463c1.9741821-0.9429321,4.3369141-0.4403076,5.7590942,1.2216187
			s1.5523682,4.0721436,0.3157959,5.87677c-5.7661743,8.4353027-20.3538818,34.8277588-12.0184937,45.090332
			c8.2522583,10.1605225,35.8920898,0.1218872,44.923584-4.1950073c1.9746704-0.9457397,4.3374023-0.4450073,5.7609863,1.2178955
			c1.423584,1.6628418,1.5532837,4.0740356,0.3162842,5.8795776c-5.7662354,8.4353027-20.354126,34.8286743-12.0184937,45.0912476
			c8.232605,10.1340942,35.8873291,0.1143188,44.9259033-4.1959229c0.300415-0.1436157,0.6169434-0.2560425,0.9403076-0.3353882
			c4.3175659-1.0515747,6.5784912,0.4761353,7.7149048,1.9415894c2.7753906,3.579895,0.5618896,7.7238159-2.7886353,13.9973755
			c-1.8478394,3.4589844-4.1472778,7.7645264-5.9447632,12.4224243c-0.5501099,1.4257202-0.93396,2.5906982-1.2008667,3.5345459
			c15.2944336-9.0957031,25.7072144-24.7956543,28.3411255-36.6181641c1.0345459-4.6427612,0.7931519-8.4730835-0.645813-10.2445679
			c-5.9872437-7.37146-34.1646729-0.1606445-43.4241333,2.2098999l-1.6867065,0.4308472
			c-1.9796143,0.50354-4.0626831-0.2929077-5.2033081-1.987915c-1.1408691-1.6950073-1.0936279-3.9238281,0.1173706-5.5687256
			c12.7287598-17.2901001,17.4450684-35.4069214,11.2142334-43.0778809
			c-5.8181763-7.1654663-32.3612671-0.3032837-42.3536377,2.2789307c-0.9030151,0.2333374-1.7474365,0.4515991-2.5241089,0.6490479
			c-1.9796143,0.5007935-4.0626831-0.2938232-5.2033081-1.987854c-1.1408691-1.6950073-1.0938721-3.9238281,0.1173706-5.5687256
			c12.7290649-17.2901001,17.34729-35.5278931,10.9813843-43.3651123
			c-5.8167725-7.1635742-32.355896-0.3041992-42.3468323,2.2769775c-0.9056091,0.234314-1.7526245,0.4535522-2.5311584,0.651001
			c-1.9803162,0.4998169-4.0626831-0.2938232-5.2033081-1.987915c-1.140625-1.6949463-1.0933838-3.9237671,0.1178589-5.5696411
			c12.7287598-17.288208,17.3470154-35.5259399,10.9808655-43.3632202
			c-5.9868164-7.3713989-34.1647339-0.1605835-43.4238892,2.2099609l-1.6867371,0.4307861
			c-2.0223694,0.512085-4.1463318-0.3287964-5.2685242-2.0870972c-1.1221924-1.7592163-0.9899292-4.039978,0.3283081-5.6575317
			c17.0614624-20.9379883,13.782959-37.2757568,12.803894-40.7536011l-29.4059143-36.2024536
			c-1.6843872-2.0738525-1.3688049-5.1199341,0.7050476-6.8045654c2.0736389-1.6845703,5.1204224-1.3690186,6.8048096,0.704834
			l29.9803772,36.9101562c0.3245239,0.3995972,0.5834045,0.8483887,0.7664795,1.3302612
			c0.3079834,0.8096924,6.4270935,17.6453857-6.6704102,40.1791992c18.5375061-4.0646362,35.2744141-5.3495483,42.576416,3.6403198
			c8.8292847,10.8701172,4.9052124,28.784729-3.9462585,44.7001343c17.7372131-4.0853882,35.2940369-6.1072998,42.9288025,3.2926636
			c8.8288574,10.8701172,4.9050293,28.784729-3.9464722,44.7010498c17.7377319-4.0834961,35.2947388-6.1063232,42.928833,3.2926636
			c7.8882446,9.711792,6.1318359,26.4576416-4.1189575,44.4696045c18.7451172-4.1543579,35.7312622-5.5488892,43.1015015,3.5241699
			c3.4343872,4.2280273,4.3262939,10.6074219,2.5793457,18.4484253
			c-3.2752075,14.7003784-16.5212402,35.2198486-37.8641357,45.5343628
			c-0.2390747,0.1152954-0.4870605,0.2106934-0.7416992,0.2853394
			C588.6890259,821.7608643,587.9813232,821.8695068,587.2278442,821.8695068z M595.0886841,787.6908569L595.0886841,787.6908569
			L595.0886841,787.6908569z"/>
	</g>
	<g>
		<g class="st2">
			<path class="st3" d="M588.3214722,780.0877075c-11.0776978,4.6730347-34.4039917,11.9870605-41.8533936,2.8250122
				c-6.8983154-8.4946289,1.9057007-28.0475464,8.4169312-39.3187256
				c-5.0599976,11.2614746-8.9974976,25.3772583-2.2540894,33.6784058
				C559.9742432,786.3085938,576.1796875,783.744812,588.3214722,780.0877075z"/>
		</g>
		<g class="st2">
			<path class="st3" d="M596.7194824,796.3125c-2.3898926,6.1918335-2.4187622,9.2299194-1.7124634,10.7005005
				c-1.5674438,1.1609497-3.2024536,2.2540894-4.8955688,3.2603149c0.2709351-0.9384155,0.6578369-2.1090698,1.2093506-3.53125
				c1.789978-4.6536865,4.0924683-8.9589233,5.9404907-12.4226074c0.6287842-1.1900024,1.2285156-2.3025513,1.7510376-3.3474731
				C598.2188721,792.6650391,597.4354248,794.4547729,596.7194824,796.3125z"/>
		</g>
		<g class="st2">
			<path class="st3" d="M549.3218994,732.1098022c-11.0874023,4.6633301-34.394043,11.9679565-41.8339844,2.8058472
				c-6.90802-8.4945679,1.9059143-28.0474854,8.4171143-39.3092041c-5.059967,11.2617188-8.9977112,25.3771973-2.2640381,33.6783447
				C520.984314,738.321228,537.1898193,735.7572632,549.3218994,732.1098022z"/>
		</g>
		<g class="st2">
			<path class="st3" d="M510.3419495,684.1127319c-11.087616,4.663147-34.3943176,11.9677734-41.8342285,2.8153076
				c-6.90802-8.4945679,1.9059143-28.0571899,8.4171143-39.3186646c-5.059967,11.2614746-9.0074158,25.3772583-2.2640381,33.6784058
				C482.0041504,690.3239746,498.2095947,687.7601929,510.3419495,684.1127319z"/>
		</g>
		<g class="st2">
			<path class="st3" d="M471.3617554,636.1154785c-11.0874023,4.6730347-34.4039917,11.9776611-41.8439331,2.8153076
				c-6.8983154-8.4943237,1.9156189-28.0472412,8.4267883-39.3186646
				c-5.0599365,11.2614746-9.0073853,25.3772583-2.2640076,33.6783447
				C443.0239258,642.3363647,459.2294006,639.772644,471.3617554,636.1154785z"/>
		</g>
	</g>
	<g>
		<path class="st0" d="M699.2868042,544.3889771h-437.881073c-49.226944,0-89.1332397-39.906311-89.1332397-89.1332397v-0.0001831
			c0-49.2269287,39.9062958-89.1332397,89.1332397-89.1332397h437.881073c49.2269287,0,89.1332397,39.906311,89.1332397,89.1332397
			v0.0001831C788.4200439,504.482666,748.5137329,544.3889771,699.2868042,544.3889771z"/>
		<path class="st1" d="M699.2868042,551.6450806H261.4058228c-53.149353,0-96.3894806-43.2403564-96.3894806-96.3890076
			c0-53.1495667,43.2401276-96.3899536,96.3894806-96.3899536h437.8809814c53.149353,0,96.3894653,43.240387,96.3894653,96.3890076
			C795.6762695,508.4047241,752.4361572,551.6450806,699.2868042,551.6450806z M261.4058228,373.378479
			c-45.1472473,0-81.8771362,36.7296448-81.8771362,81.8766479s36.7298889,81.8776245,81.8771362,81.8776245h437.8809814
			c45.1472778,0,81.8771362-36.7296753,81.8771362-81.8766785c0-45.1479492-36.7298584-81.877594-81.8771362-81.877594H261.4058228z
			"/>
	</g>
	<g>
		<path class="st0" d="M595.3380127,467.9873657l9.5427856-23.8583679c1.2089844-3.0226746-0.4011841-6.4361877-3.5026855-7.4255981
			l-18.7398682-5.9781494c-3.1016235-0.9894409-4.711792-4.4032288-3.5025024-7.4259644l7.3051147-18.2602539
			c1.2093506-3.0229492-0.401062-6.4369202-3.5030518-7.4261475l-18.7362061-5.9750366
			c-3.1019897-0.9892273-4.7124023-4.4032593-3.5029907-7.4262085l7.3049316-18.2589722
			c1.2094116-3.0229187-0.401001-6.4369812-3.5029907-7.4262085l-18.7357178-5.9748535
			c-3.1021118-0.9892883-4.7125244-4.4035645-3.5028687-7.4265747l7.3049927-18.2554321
			c1.2097168-3.0231628-0.4008789-6.4375916-3.5032349-7.4266968l-18.7325439-5.9723511
			c-3.102478-0.9891357-4.7130737-4.4038086-3.5031128-7.427002l7.3051147-18.2522888
			c1.2099609-3.0231323-0.4005737-6.4377441-3.5029297-7.4269714l-18.7333374-5.9732971
			c-3.102356-0.9892273-4.7128601-4.4038086-3.5029297-7.4269104l7.3050537-18.2526398
			c1.2099609-3.0231781-0.4006348-6.4378052-3.5030823-7.4269714l-18.7327271-5.97258
			c-3.102356-0.9891357-4.7129517-4.4036102-3.5031738-7.4267578l7.3049316-18.2545013
			c1.2097473-3.0231323-0.4008179-6.4375763-3.5031433-7.4267273l-18.7332458-5.9729462
			c-3.1023254-0.989151-4.7128906-4.4036407-3.5030823-7.4267731l7.3049927-18.2542419
			c1.2098083-3.0230865-0.4006958-6.4375458-3.5029907-7.4267426l-18.9180298-6.0322571
			c-3.0335693-0.9673004-4.6542053-4.2631531-3.5680237-7.2562256l0,0c1.856842-5.1167297,6.3764038-8.7982635,11.7629395-9.5818024
			l23.8531494-3.4697723c24.7433472-3.5992432,49.2785339,7.7478485,62.5596619,28.9327087l155.5283203,248.0850525
			L595.3380127,467.9873657z"/>
		<path class="st1" d="M581.507019,483.0289001l15.9788818-39.950531l-17.0531616-5.4402466
			c-3.390686-1.0818176-6.2067261-3.5487061-7.7252808-6.7677002c-1.5185547-3.2199402-1.6309814-6.9613953-0.3084717-10.2663574
			l6.6469727-16.6164551l-17.0488892-5.4364624c-3.3916626-1.0817871-6.2077026-3.5487061-7.7265015-6.7686462
			c-1.5185547-3.2199097-1.6312256-6.9613953-0.3088989-10.2663269l6.6469727-16.614563l-17.0482178-5.4364624
			c-3.3914185-1.0818176-6.2077026-3.5477905-7.7262573-6.7677002c-1.5189819-3.2199402-1.6316528-6.9623413-0.3091431-10.2682495
			l6.6472168-16.6107788l-17.045166-5.4345703c-3.392334-1.0818176-6.2088013-3.5487366-7.727356-6.7686462
			c-1.5187988-3.2199402-1.6310425-6.9623413-0.3080444-10.2682495l6.6467896-16.6069946l-17.0458679-5.4355164
			c-3.3919067-1.0818176-6.2081604-3.5487366-7.7269287-6.7686462c-1.5187988-3.2199402-1.6312256-6.9623413-0.3085022-10.2673035
			l6.6467896-16.6079407l-17.045166-5.4355164c-3.3918762-1.0818176-6.2086182-3.5487213-7.7271729-6.7686615
			c-1.5185547-3.2199249-1.6309814-6.962326-0.3080139-10.2672882l6.6467896-16.6098328l-17.0461121-5.4355164
			c-3.3899841-1.0799255-6.2067261-3.5458832-7.7259827-6.7658234c-1.5197449-3.2199249-1.6326294-6.9632721-0.309906-10.2691803
			l6.6470032-16.6107788l-17.2303467-5.4940948c-3.315094-1.0563049-6.0985413-3.4542389-7.6350403-6.5777893
			c-1.5369568-3.1245117-1.7372742-6.7932281-0.5496216-10.0670013c2.7739563-7.6426086,9.4946594-13.1168518,17.5397644-14.2865448
			l23.8527832-3.4702911c27.5751038-4.006958,54.9524841,8.6516571,69.7521057,32.2597351l159.7704468,254.8504028
			L581.507019,483.0289001z M586.5308228,424.3502502l17.0526733,5.4402466
			c3.3907471,1.0818176,6.2064819,3.5487366,7.7250366,6.7677002c1.5187988,3.2189941,1.6312256,6.9613953,0.3092041,10.2663574
			l-2.4484863,6.12146l83.9864502-42.0574646l-151.286499-241.3187866
			c-11.7475586-18.7384949-33.4818726-28.7884979-55.3670654-25.6063538l-23.8530273,3.4703064
			c-2.1645508,0.314621-4.0480347,1.5419312-5.2122803,3.3247986l17.0952148,5.4515686
			c3.3918762,1.0818176,6.208374,3.5487213,7.7271729,6.7686615c1.5183105,3.2199249,1.6307373,6.962326,0.3077698,10.2672882
			l-6.6465149,16.6088867l17.0456238,5.4355164c3.3918762,1.0818176,6.208374,3.5487213,7.7271423,6.7686462
			c1.5187988,3.2199402,1.6312256,6.9623413,0.3085022,10.2673035l-6.6465454,16.6098328l17.045166,5.4355164
			c3.3904724,1.0799255,6.207428,3.5468292,7.7267151,6.7667542c1.5192261,3.220871,1.6316528,6.9642334,0.3082275,10.2691956
			l-6.6467896,16.6079407l17.0458984,5.4355164c3.3918457,1.0818176,6.208374,3.5487366,7.7271729,6.7677002
			c1.5187378,3.2208862,1.6311646,6.9632874,0.3084717,10.2682495l-6.6470337,16.6079407l17.0446777,5.4345703
			c3.3921509,1.0818176,6.208374,3.5487366,7.7271729,6.7677002c1.519043,3.2199402,1.6317139,6.9623413,0.3092041,10.2682495
			l-6.6474609,16.6107788l17.0484619,5.4364624c3.3934937,1.0827637,6.2092896,3.5505981,7.7276001,6.7705383
			c1.5176392,3.2199097,1.6298218,6.9604492,0.3075562,10.2654114l-6.6467896,16.614563l17.0491943,5.4364624
			c3.3914185,1.0817871,6.2072144,3.5487061,7.7259521,6.7677002c1.5187988,3.2189636,1.6314697,6.9613953,0.3094482,10.2663269
			L586.5308228,424.3502502z"/>
	</g>
	<g class="st2">
		<path class="st3" d="M611.6187134,446.8262024c1.3255615-3.30896,1.2093506-7.0530396-0.3096313-10.2651672
			c-1.519043-3.2218018-4.3343506-5.6887207-7.7205811-6.7724304l-17.0567017-5.4371643l6.6464844-16.6213989
			c1.3256226-3.2993164,1.2094116-7.0436096-0.3093872-10.2651672c-1.519043-3.2121582-4.3343506-5.6790466-7.7304688-6.7627563
			l-17.0470581-5.4374084l6.6465454-16.6213989c1.3255615-3.2990723,1.2093506-7.0433655-0.3094482-10.255249
			c-1.5093384-3.2218323-4.3343506-5.6889648-7.72052-6.7724304l-17.0473022-5.4374084l6.6467896-16.6117249
			c1.3156128-3.3089905,1.2093506-7.0530396-0.3096924-10.2651672c-1.519043-3.2215881-4.3343506-5.6889648-7.7302246-6.7724304
			l-17.0473022-5.4371643l6.6467896-16.6022949c1.3255615-3.3087158,1.2093506-7.0530396-0.3096924-10.2649231
			c-1.5189819-3.2218323-4.3342896-5.6889648-7.72052-6.7724304l-17.0470581-5.4374084l6.6465454-16.6117249
			c1.3255615-3.2992859,1.2093506-7.0433502-0.3096924-10.2651672c-1.5187988-3.2215881-4.3343506-5.6887207-7.7299805-6.7627411
			l-17.0375977-5.4371796l6.6465149-16.6119537c1.315918-3.3087463,1.2093811-7.0431213-0.3094177-10.2649384
			c-1.5190125-3.221817-4.3343201-5.6889648-7.7304688-6.7724304l-17.0470581-5.4373932l6.6465454-16.6020508
			c1.3255615-3.3089752,1.2093506-7.0530396-0.3094177-10.2746124c-1.519043-3.2121277-4.3343506-5.6792755-7.7205505-6.7629852
			l-17.0954895-5.4565277c1.1609497-1.7802734,3.0475159-3.0090027,5.2049866-3.3184357l23.8582153-3.4733734
			c6.0855408-0.8900146,12.1711121-0.7449799,18.0244751,0.3290405c-6.443634,5.1468658-11.5905151,13.2642365-8.3592529,25.5900574
			c5.6502075,21.575058,97.1264038,211.0578003,131.5013428,281.9070435l-22.5522461,11.3002319L611.6187134,446.8262024z"/>
	</g>
	<g>
		<path class="st0" d="M699.2868042,575.4822998h-437.881073c-49.226944,0-89.1332397-39.906311-89.1332397-89.1332703v-0.0001831
			c0-49.2269287,39.9062958-89.1332397,89.1332397-89.1332397h437.881073c49.2269287,0,89.1332397,39.906311,89.1332397,89.1332397
			v0.0001831C788.4200439,535.5759888,748.5137329,575.4822998,699.2868042,575.4822998z"/>
		<path class="st1" d="M699.2868042,582.7388916H261.4058228c-53.149353,0-96.3894806-43.2403564-96.3894806-96.3899231
			s43.2401276-96.3899536,96.3894806-96.3899536h437.8809814c53.149353,0,96.3894653,43.240387,96.3894653,96.3899536
			S752.4361572,582.7388916,699.2868042,582.7388916z M261.4058228,404.4713745
			c-45.1472473,0-81.8771362,36.7305908-81.8771362,81.877594s36.7298889,81.877594,81.8771362,81.877594h437.8809814
			c45.1472778,0,81.8771362-36.7305908,81.8771362-81.877594s-36.7298584-81.877594-81.8771362-81.877594H261.4058228z"/>
	</g>
	<g>
		<path class="st0" d="M187.0601654,522.1958618L54.6505089,356.9512329
			c-11.4872093-14.3358154-21.5837555-29.7522278-29.8613548-46.1520081
			c-6.2534885-12.3895569-11.4892454-25.26651-10.3411636-31.8940735
			c2.6241894-15.1486816,57.8786926-15.8908386,101.6164093,8.8493958
			c4.7471237,2.5100403-5.5022964,10.556488-21.7954941,24.3235779c-3.0161285,2.5484924-3.5357056,7.0004272-1.1730881,10.1642761
			c10.2327499,13.7029724,26.4184418,36.6712646,26.4184418,36.6712646s16.8477859,26.8435669,34.1806564,12.8558655
			s-2.9886475-37.7922363-14.2593842-40.7848511c-11.2707367-2.9926453,8.0596161-14.2053223,32.8369598-2.1115417
			s55.9125061,70.2792664,58.9622803,132.6651306L187.0601654,522.1958618z"/>
		<path class="st1" d="M187.3356934,534.1442871L48.987957,361.4879761
			c-12.0874825-15.0848999-22.4086323-31.039032-30.6765823-47.418335
			C6.7542882,291.1711426,6.4910393,282.3267212,7.2983828,277.6669006
			c0.6202707-3.5808411,2.9474659-8.6025391,10.5108232-12.1833801
			c19.3407001-9.1590271,64.8325653-4.9432678,101.7606277,15.9172974c2.7723236,1.5097961,4.5426636,4.0853577,4.8639069,7.0870361
			c0.7539597,7.0445557-5.7928925,12.5556335-21.6095581,25.8690186l-3.8720856,3.2633972
			c-0.0881042,0.074646-0.1060562,0.1946106-0.0420456,0.2806091c10.174469,13.6251526,26.3733139,36.6021118,26.5355835,36.8326416
			l0.2147064,0.3221741c1.9645081,3.0961609,9.1644592,12.2344055,16.1190033,13.3795166
			c1.6021729,0.2673645,4.1073456,0.3117981,7.3584442-2.3128967c3.4936981-2.8193359,4.6475525-5.9740601,3.7414703-10.2304688
			c-1.8338776-8.6138611-11.0257416-16.7572327-15.3057556-17.8938293
			c-6.3737183-1.6921692-8.0696564-5.6311035-8.5134888-7.8287354c-0.7052917-3.492981,0.7797089-7.0511475,3.9722443-9.5190125
			c7.3067169-5.6452637,24.6572876-6.9698792,42.4230957,1.7016296
			c27.2508087,13.3010864,59.8374481,73.5887451,63.0269012,138.8319397l0.1251984,2.5566711L187.3356934,534.1442871z
			 M21.5807858,280.2557068c-0.1729012,1.3114014-0.2052612,7.6756592,9.6862354,27.2748718
			c7.8145599,15.4817505,17.5872459,30.5827026,29.0459518,44.8834229l126.4718933,157.8340454l37.0622253-50.8914795
			c-1.6701965-27.0821533-8.9164581-55.3604431-20.507431-79.9133301
			c-10.3419342-21.9064636-23.4658813-38.7855835-34.2499847-44.0491333
			c-6.0293427-2.9430847-11.4776001-4.2157593-15.9019318-4.605011
			c6.3942566,5.5101318,12.0702362,13.5533447,13.8856964,22.0812378c2.041748,9.5898743-1.0912628,18.3076782-8.8215027,24.5462646
			c-5.6993561,4.5993652-12.2303772,6.4408264-18.8882446,5.3287659
			c-14.2116623-2.3762207-24.3044052-17.3288269-25.8820114-19.7957458
			c-1.3867493-1.966156-16.5630646-23.4606934-26.1996918-36.3659058
			c-4.6477814-6.2244263-3.6356506-15.0300903,2.3039246-20.0489502l3.8926392-3.2803955
			c4.9725571-4.1855164,10.396965-8.7518311,13.7427902-11.978363
			c-23.4887924-11.6986694-58.6717796-19.9733582-79.7836533-13.9274902
			C23.4769096,278.4822693,21.8958817,279.801239,21.5807858,280.2557068z M140.9535828,323.8635864L140.9535828,323.8635864
			L140.9535828,323.8635864z"/>
	</g>
	<g class="st2">
		<path class="st3" d="M196.3003998,501.7089844c-0.0001831,0.0001831-9.5159912,8.5362244-9.5159912,8.5362244
			L60.3139458,352.4184875c-11.4549294-14.3092346-21.2363548-29.4019165-29.0440636-44.891449
			c-9.8974018-19.5916443-9.8586636-25.9578247-9.6843452-27.2737122c0.3094254-0.4544373,1.8865566-1.7703552,5.8531227-2.9024658
			c5.3599319-1.538147,11.6389313-2.1475525,18.4016762-2.012207c-4.2374573,3.1733704-5.7661781,6.8496094-6.2499352,9.645752
			c-0.5233994,3.0252991,0.5364685,6.0079346,1.6159668,8.7912292c2.5864639,6.6687317,5.9131088,13.1832275,9.1963654,19.5288391
			c12.10783,23.401001,29.4454803,43.0839844,45.8054352,63.4995422
			c12.0647888,15.0556335,24.1295776,30.1112671,36.1943588,45.1669006
			c13.8121338,17.236145,27.6242676,34.47229,41.4364014,51.7084351c7.4117126,9.249054,14.82341,18.4981079,22.2351227,27.7471924
			C196.085022,501.4402161,196.3027191,501.7069092,196.3003998,501.7089844z"/>
	</g>
	<g>
		<path class="st0" d="M703.5455322,471.8424072c0,0,1.0140991,0.3475952,57.2064209-165.2492981
			c1.9399414-5.7169495,3.8948364-11.428833,5.866394-17.1349792c9.357666-27.083313,19.0637207-54.0539246,29.4636841-80.756073
			c7.2411499-18.5918732,14.8034058-37.0728607,23.0827026-55.2292786
			c5.3786011-11.7952728,11.0421143-23.4888,17.4284668-34.776123c2.0705566-3.659462,4.2412109-7.2640076,6.567627-10.7670364
			c2.2919922-3.4511948,4.7357788-6.8038712,7.3729248-10.0000534c3.0789185-3.7315445,6.5412598-7.1182632,9.918396-10.5755615
			c0.9645386-0.9874115,2.1478271-2.1049194,3.6450806-1.9487305c2.2081299,0.2303925,2.991333,3.0948639,3.3521118,4.8672714
			c6.9157715,33.9745483,12.40979,68.212944,16.8382568,102.5972977c3.0310669,23.5343933,0.3410645,47.4457703-7.831665,69.7226868
			l-98.3535156,268.088501L703.5455322,471.8424072z"/>
		<path class="st1" d="M781.4665527,542.5786133l-115.821228-91.4022522l33.6478882,11.5371399
			c4.4394531-12.1540833,17.3607178-48.7467651,54.5873413-158.4519653
			c1.9442139-5.7293701,3.9035034-11.4549255,5.8795776-17.1729431
			c10.550293-30.5345154,20.2194824-57.0365448,29.5606689-81.0197144
			c8.4447021-21.6825409,15.829834-39.3524628,23.2416992-55.6060944
			c6.4597168-14.1656036,12.0888672-25.3947144,17.715271-35.3398285c2.3440552-4.142067,4.5809326-7.8088913,6.838562-11.2073898
			c2.578125-3.8822403,5.1362305-7.3506546,7.8200073-10.603653c2.7401733-3.321022,5.6969604-6.3236389,8.5562134-9.2270508
			c0.5905151-0.5999603,1.1810303-1.199913,1.7689209-1.8017654c1.2365112-1.2651062,4.5206909-4.637146,9.5915527-4.0938797
			c2.8738403,0.2985611,7.9640503,2.0785904,9.706543,10.6357727c6.675354,32.7935638,12.2114868,66.5234299,16.9246826,103.1179733
			c3.1651001,24.5755615,0.3240356,49.8701324-8.2161255,73.148468L781.4665527,542.5786133z M712.2775269,469.4897156
			l62.4609985,49.2928162l94.9053955-258.6891785c7.7403564-21.0986481,10.3154907-44.0236206,7.4470215-66.2966614
			c-4.425293-34.3572235-9.5794678-66.1502304-15.7304688-97.0059738c-1.848999,1.9075851-3.605835,3.7887115-5.2302246,5.7567596
			c-2.361084,2.8618393-4.6265259,5.936264-6.9248047,9.3971176c-2.0651245,3.1084366-4.1248169,6.4861526-6.296936,10.3249283
			c-5.4140015,9.5690842-10.8609009,20.4410629-17.1417847,34.2145615
			c-7.2958374,15.9994812-14.579895,33.4294128-22.9230347,54.8511963
			c-9.2724609,23.8074188-18.8786011,50.1365509-29.3670044,80.4925079
			c-1.9673462,5.6934509-3.9176636,11.3925476-5.8533325,17.0973511
			c-22.7617798,67.0780334-39.8565063,116.8886414-49.4362183,144.0473328
			C715.4684448,460.6802673,713.6265259,465.9013062,712.2775269,469.4897156z"/>
	</g>
	<g class="st2">
		<path class="st3" d="M868.40979,135.1782837c-2.8831177,2.9315186-5.7855835,5.853363-8.4074097,9.036438
			c-2.6412354,3.1927643-5.0793457,6.5499268-7.3724365,9.9942474c-2.331543,3.5021973-4.4987183,7.1109161-6.5690308,10.7680511
			c-6.3855591,11.2905273-12.0452271,22.9778748-17.4244995,34.7812042
			c-8.2817993,18.150116-15.8475952,36.6292725-23.0844116,55.2243958
			c-10.4005127,26.7025909-20.1044922,53.6763153-29.4697266,80.7563324
			c-1.9639893,5.7080994-3.918335,11.4164429-5.8630371,17.1342163
			c-21.894165,64.5123901-35.4099731,103.8407593-43.7595215,127.8151855l-14.1833496-11.1939392
			c1.3544312-3.589325,3.1928101-8.8136902,5.9112549-16.5247803c9.5783081-27.1572876,26.6737671-76.963623,49.4388428-144.0397644
			c1.9349365-5.7080994,3.8796387-11.4067383,5.8533325-17.1051636
			c10.4876709-30.3599548,20.0947876-56.6949921,29.3631592-80.4856567
			c8.3496094-21.4394836,15.6348267-38.8639832,22.9200439-54.8566132
			c6.2886963-13.7770538,11.7355347-24.6419373,17.1438599-34.2103119
			c2.1768799-3.8409042,4.2374878-7.2176743,6.2984009-10.3327255c2.3024902-3.4540024,4.5665283-6.5305557,6.927124-9.3945236
			c1.6255493-1.964035,3.3765259-3.8505936,5.2243652-5.7565155
			C863.8723145,109.3947754,866.213562,122.146225,868.40979,135.1782837z"/>
	</g>
	<g>
		<path class="st4" d="M699.2868042,606.5755615h-437.881073c-49.226944,0-89.1332397-39.906311-89.1332397-89.1332397v-0.0001831
			c0-49.2268982,39.9062958-89.1332092,89.1332397-89.1332092h437.881073c49.2269287,0,89.1332397,39.906311,89.1332397,89.1332092
			v0.0001831C788.4200439,566.6692505,748.5137329,606.5755615,699.2868042,606.5755615z"/>
		<path class="st1" d="M699.2868042,613.8317871H261.4058228c-53.149353,0-96.3894806-43.2403564-96.3894806-96.3889771
			c0-53.1495972,43.2401276-96.3899536,96.3894806-96.3899536h437.8809814c53.149353,0,96.3894653,43.2403564,96.3894653,96.3889771
			C795.6762695,570.5914307,752.4361572,613.8317871,699.2868042,613.8317871z M261.4058228,435.5652161
			c-45.1472473,0-81.8771362,36.7296448-81.8771362,81.8766174c0,45.1479492,36.7298889,81.8776245,81.8771362,81.8776245
			h437.8809814c45.1472778,0,81.8771362-36.7296753,81.8771362-81.8766479s-36.7298584-81.877594-81.8771362-81.877594H261.4058228z
			"/>
	</g>
	<g class="st5">
		<path class="st3" d="M772.3589478,480.5030823c-14.3286133-16.9310608-35.7293701-27.6990967-59.5974731-27.6990967H247.9310608
			c-23.8679047,0-45.2688904,10.7680359-59.5974731,27.6990967c13.5160522-26.6541443,41.1958008-44.9689026,73.0747681-44.9689026
			h437.8760681C731.163147,435.5341797,758.8431396,453.848938,772.3589478,480.5030823z"/>
	</g>
	<g class="st6">
		<path class="st7" d="M772.3589478,554.4129639c-14.3286133,16.9310913-35.7293701,27.6991577-59.5974731,27.6991577H247.9310608
			c-23.8679047,0-45.2688904-10.7680664-59.5974731-27.6991577c13.5160522,26.6541748,41.1958008,44.9689331,73.0747681,44.9689331
			h437.8760681C731.163147,599.381897,758.8431396,581.0671387,772.3589478,554.4129639z"/>
	</g>
	<g>
		<path class="st1" d="M420.4622192,549.6609497c-0.1407776,0-0.280365-0.0614014-0.3760376-0.1785278l-0.1256409-0.1559448
			c-0.1681824-0.2069092-0.1362915-0.512085,0.0710754-0.6802368c0.2071533-0.1691284,0.512085-0.1360474,0.6805115,0.0708618
			l0.1256714,0.1558838c0.1681519,0.2069092,0.1362915,0.512085-0.071106,0.6802979
			C420.6771545,549.6260376,420.5692139,549.6609497,420.4622192,549.6609497z"/>
	</g>
	<g>
		<path class="st1" d="M813.6497803,368.7876282l26.1099243-66.7319946c0,0-11.979126,0.8675842-22.2493286,26.2608032
			S813.6497803,368.7876282,813.6497803,368.7876282z"/>
	</g>
	<g>
		<path class="st1" d="M613.6244507,312.8673096l-37.0006714-61.3664246c0,0-6.6117554,10.026825,7.2639771,33.6437073
			S613.6244507,312.8673096,613.6244507,312.8673096z"/>
	</g>
	<g>
		<path class="st3" d="M235.1436462,532.6221924v-57.3464355h18.5533142v53.8326416
			c0,8.5742188,7.1683044,15.1803589,16.4449768,15.1803589c9.4171753,0,16.5854797-6.6061401,16.5854797-15.1803589v-53.8326416
			h18.5535583v57.3464355c0,15.8832397-15.1800842,28.111084-35.1390381,28.111084
			C250.464035,560.7332764,235.1436462,548.5054321,235.1436462,532.6221924z"/>
		<path class="st3" d="M373.4523926,491.7202454h-21.2240601v67.8887024h-18.4127808v-67.8887024h-21.3643799v-16.4444885
			h61.0012207V491.7202454z"/>
		<path class="st3" d="M381.74646,475.2757568h18.5533142v84.3331909H381.74646V475.2757568z"/>
		<path class="st3" d="M463.9719849,543.1634521v16.4454956h-46.5238342v-84.3331909h18.5533142v67.8876953H463.9719849z"/>
		<path class="st3" d="M473.249115,475.2757568h18.5533142v84.3331909H473.249115V475.2757568z"/>
		<path class="st3" d="M560.9562378,491.7202454h-21.223877v67.8887024H521.319397v-67.8887024h-21.364624v-16.4444885h61.0014648
			V491.7202454z"/>
		<path class="st3" d="M569.2502441,475.2757568h18.5533447v84.3331909h-18.5533447V475.2757568z"/>
		<path class="st3" d="M624.2077637,491.5794678v17.7105408h27.5488892v16.304657h-27.5488892v17.7095947h32.187439v16.3046875
			h-50.7407837v-84.3331909h50.7407837v16.3037109H624.2077637z"/>
		<path class="st3" d="M664.4067383,541.899292l15.3206787-9.5586548c3.0923462,6.6061401,9.1363525,10.963623,16.8668213,10.963623
			c6.4658203,0,10.401001-3.0924072,10.401001-7.7304688c0-14.7579956-38.93396-7.8712769-38.93396-36.5444641
			c0-16.8668213,13.6341553-24.8778992,26.9867554-24.8778992c10.4014282,0,19.8184204,4.7788696,26.0031738,11.9471741
			l-12.3690186,11.8063965c-4.2167358-4.638092-8.9956055-7.309082-13.7744751-7.309082
			c-4.4978027,0-8.1523438,2.2486572-8.1523438,7.0275269c0,14.6181335,38.7936401,6.8876953,38.7936401,38.091095
			c0,15.7424927-13.3530884,25.0187378-29.0950928,25.0187378
			C681.6954346,560.7332764,669.8885498,552.4406128,664.4067383,541.899292z"/>
	</g>
</g>
</svg>
