<svg width="556" height="126" viewBox="0 0 556 126" fill="none" xmlns="http://www.w3.org/2000/svg">
<path d="M191.63 81.5098C189.53 80.6098 187.93 79.3098 186.73 77.6098C185.53 75.9098 184.93 73.9098 184.93 71.7098H191.83C191.93 73.4098 192.63 74.8098 193.83 75.9098C195.03 77.0098 196.63 77.5098 198.83 77.5098C201.03 77.5098 202.73 77.0098 204.03 75.9098C205.23 74.8098 205.93 73.5098 205.93 71.8098C205.93 70.5098 205.53 69.4098 204.73 68.6098C203.93 67.8098 203.03 67.1098 201.83 66.7098C200.73 66.2098 199.13 65.8098 197.03 65.2098C194.53 64.5098 192.43 63.8098 190.83 63.1098C189.23 62.4098 187.83 61.3098 186.73 59.9098C185.63 58.4098 185.03 56.5098 185.03 54.1098C185.03 51.9098 185.63 49.9098 186.73 48.2098C187.83 46.5098 189.43 45.2098 191.43 44.3098C193.43 43.4098 195.83 43.0098 198.43 43.0098C202.23 43.0098 205.33 43.9098 207.73 45.8098C210.13 47.7098 211.53 50.3098 211.73 53.6098H204.63C204.53 52.2098 203.83 51.0098 202.63 49.9098C201.43 48.9098 199.73 48.4098 197.73 48.4098C195.93 48.4098 194.43 48.9098 193.23 49.8098C192.03 50.7098 191.53 52.1098 191.53 53.8098C191.53 55.0098 191.93 56.0098 192.63 56.8098C193.33 57.6098 194.33 58.2098 195.43 58.6098C196.53 59.1098 198.13 59.5098 200.03 60.1098C202.63 60.8098 204.73 61.5098 206.33 62.2098C207.93 62.9098 209.33 64.0098 210.53 65.5098C211.63 67.0098 212.23 69.0098 212.23 71.4098C212.23 73.4098 211.73 75.3098 210.63 77.0098C209.53 78.8098 208.03 80.2098 205.93 81.2098C203.93 82.3098 201.43 82.8098 198.73 82.8098C196.13 82.9098 193.73 82.4098 191.63 81.5098Z" fill="#3C3C3C"/>
<path d="M248.03 69.4098H224.33C224.53 71.9098 225.43 73.9098 227.13 75.4098C228.73 76.9098 230.83 77.6098 233.23 77.6098C236.63 77.6098 239.13 76.2098 240.53 73.3098H247.43C246.53 76.1098 244.83 78.5098 242.33 80.3098C239.83 82.1098 236.83 83.0098 233.23 83.0098C230.23 83.0098 227.63 82.3098 225.23 81.0098C222.93 79.7098 221.03 77.8098 219.73 75.4098C218.43 73.0098 217.73 70.2098 217.73 67.0098C217.73 63.8098 218.33 61.0098 219.63 58.6098C220.93 56.2098 222.73 54.3098 225.13 53.0098C227.43 51.7098 230.13 51.0098 233.23 51.0098C236.13 51.0098 238.73 51.6098 241.03 52.9098C243.33 54.2098 245.13 56.0098 246.33 58.3098C247.63 60.6098 248.23 63.3098 248.23 66.3098C248.23 67.4098 248.13 68.4098 248.03 69.4098ZM241.53 64.2098C241.53 61.8098 240.63 59.9098 239.03 58.5098C237.33 57.1098 235.33 56.4098 232.93 56.4098C230.73 56.4098 228.83 57.1098 227.23 58.5098C225.63 59.9098 224.73 61.8098 224.43 64.2098H241.53Z" fill="#3C3C3C"/>
<path d="M260.93 40.9102V82.5102H254.53V40.9102H260.93Z" fill="#3C3C3C"/>
<path d="M275.83 40.9102V82.5102H269.43V40.9102H275.83Z" fill="#3C3C3C"/>
<path d="M312.43 69.4098H288.73C288.93 71.9098 289.83 73.9098 291.53 75.4098C293.13 76.9098 295.23 77.6098 297.63 77.6098C301.03 77.6098 303.53 76.2098 304.93 73.3098H311.83C310.93 76.1098 309.23 78.5098 306.73 80.3098C304.23 82.1098 301.23 83.0098 297.63 83.0098C294.63 83.0098 292.03 82.3098 289.63 81.0098C287.33 79.7098 285.43 77.8098 284.13 75.4098C282.83 73.0098 282.13 70.2098 282.13 67.0098C282.13 63.8098 282.73 61.0098 284.03 58.6098C285.33 56.2098 287.13 54.3098 289.53 53.0098C291.83 51.7098 294.53 51.0098 297.63 51.0098C300.53 51.0098 303.13 51.6098 305.43 52.9098C307.73 54.2098 309.53 56.0098 310.73 58.3098C312.03 60.6098 312.63 63.3098 312.63 66.3098C312.63 67.4098 312.53 68.4098 312.43 69.4098ZM305.93 64.2098C305.93 61.8098 305.03 59.9098 303.43 58.5098C301.73 57.1098 299.73 56.4098 297.33 56.4098C295.13 56.4098 293.23 57.1098 291.63 58.5098C290.03 59.9098 289.13 61.8098 288.83 64.2098H305.93Z" fill="#3C3C3C"/>
<path d="M329.03 52.3098C330.63 51.4098 332.43 51.0098 334.53 51.0098V57.6098H332.93C330.43 57.6098 328.53 58.2098 327.23 59.5098C325.93 60.8098 325.33 63.0098 325.33 66.1098V82.4098H318.93V51.4098H325.33V55.9098C326.23 54.4098 327.53 53.2098 329.03 52.3098Z" fill="#3C3C3C"/>
<path d="M363.73 43.4102V68.3102C363.73 71.3102 364.53 73.5102 366.03 75.0102C367.63 76.5102 369.73 77.2102 372.53 77.2102C375.33 77.2102 377.53 76.5102 379.13 75.0102C380.73 73.5102 381.43 71.3102 381.43 68.3102V43.4102H387.83V68.2102C387.83 71.4102 387.13 74.1102 385.73 76.3102C384.33 78.5102 382.53 80.2102 380.13 81.2102C377.83 82.3102 375.23 82.8102 372.43 82.8102C369.63 82.8102 367.03 82.3102 364.73 81.2102C362.43 80.1102 360.63 78.5102 359.23 76.3102C357.93 74.1102 357.23 71.4102 357.23 68.2102V43.4102H363.73Z" fill="#3C3C3C"/>
<path d="M403.63 56.7105V73.9105C403.63 75.1105 403.93 75.9105 404.43 76.4105C404.93 76.9105 405.93 77.2105 407.23 77.2105H411.13V82.5105H406.13C403.23 82.5105 401.03 81.8105 399.53 80.5105C398.03 79.2105 397.23 77.0105 397.23 73.9105V56.7105H393.53V51.5105H397.23V43.8105H403.73V51.5105H411.23V56.7105H403.63Z" fill="#3C3C3C"/>
<path d="M417.43 46.2109C416.63 45.4109 416.23 44.4109 416.23 43.3109C416.23 42.1109 416.63 41.2109 417.43 40.4109C418.23 39.6109 419.23 39.2109 420.33 39.2109C421.43 39.2109 422.43 39.6109 423.23 40.4109C424.03 41.2109 424.43 42.2109 424.43 43.3109C424.43 44.5109 424.03 45.4109 423.23 46.2109C422.43 47.0109 421.53 47.4109 420.33 47.4109C419.23 47.4109 418.23 47.0109 417.43 46.2109ZM423.53 51.5109V82.5109H417.13V51.5109H423.53Z" fill="#3C3C3C"/>
<path d="M438.33 40.9102V82.5102H431.93V40.9102H438.33Z" fill="#3C3C3C"/>
<path d="M447.13 46.2109C446.33 45.4109 445.93 44.4109 445.93 43.3109C445.93 42.1109 446.33 41.2109 447.13 40.4109C447.93 39.6109 448.93 39.2109 450.03 39.2109C451.13 39.2109 452.13 39.6109 452.93 40.4109C453.73 41.2109 454.13 42.2109 454.13 43.3109C454.13 44.5109 453.73 45.4109 452.93 46.2109C452.13 47.0109 451.23 47.4109 450.03 47.4109C448.93 47.4109 447.93 47.0109 447.13 46.2109ZM453.23 51.5109V82.5109H446.83V51.5109H453.23Z" fill="#3C3C3C"/>
<path d="M469.13 56.7105V73.9105C469.13 75.1105 469.43 75.9105 469.93 76.4105C470.43 76.9105 471.43 77.2105 472.73 77.2105H476.63V82.5105H471.53C468.63 82.5105 466.43 81.8105 464.93 80.5105C463.43 79.2105 462.63 77.0105 462.63 73.9105V56.7105H458.93V51.5105H462.63V43.8105H469.13V51.5105H476.63V56.7105H469.13Z" fill="#3C3C3C"/>
<path d="M482.93 46.2109C482.13 45.4109 481.73 44.4109 481.73 43.3109C481.73 42.1109 482.13 41.2109 482.93 40.4109C483.73 39.6109 484.73 39.2109 485.83 39.2109C486.93 39.2109 487.93 39.6109 488.73 40.4109C489.53 41.2109 489.93 42.2109 489.93 43.3109C489.93 44.5109 489.53 45.4109 488.73 46.2109C487.93 47.0109 487.03 47.4109 485.83 47.4109C484.63 47.4109 483.73 47.0109 482.93 46.2109ZM488.93 51.5109V82.5109H482.53V51.5109H488.93Z" fill="#3C3C3C"/>
<path d="M525.63 69.4117H501.93C502.13 71.9117 503.03 73.9117 504.73 75.4117C506.33 76.9117 508.43 77.6117 510.83 77.6117C514.23 77.6117 516.73 76.2117 518.13 73.3117H525.03C524.13 76.1117 522.43 78.5117 519.93 80.3117C517.43 82.1117 514.43 83.0117 510.83 83.0117C507.83 83.0117 505.23 82.3117 502.83 81.0117C500.53 79.7117 498.63 77.8117 497.33 75.4117C496.03 73.0117 495.33 70.2117 495.33 67.0117C495.33 63.8117 495.93 61.0117 497.23 58.6117C498.53 56.2117 500.33 54.3117 502.73 53.0117C505.03 51.7117 507.73 51.0117 510.83 51.0117C513.73 51.0117 516.33 51.6117 518.63 52.9117C520.93 54.2117 522.73 56.0117 523.93 58.3117C525.23 60.6117 525.83 63.3117 525.83 66.3117C525.83 67.4117 525.73 68.4117 525.63 69.4117ZM519.13 64.2117C519.13 61.8117 518.23 59.9117 516.63 58.5117C514.93 57.1117 512.93 56.4117 510.53 56.4117C508.33 56.4117 506.43 57.1117 504.83 58.5117C503.23 59.9117 502.33 61.8117 502.03 64.2117H519.13Z" fill="#3C3C3C"/>
<path d="M536.83 81.7102C534.93 80.8102 533.33 79.6102 532.23 78.1102C531.13 76.6102 530.53 74.9102 530.43 73.0102H537.03C537.13 74.3102 537.73 75.4102 538.93 76.3102C540.03 77.2102 541.53 77.6102 543.23 77.6102C545.03 77.6102 546.43 77.3102 547.43 76.6102C548.43 75.9102 548.93 75.0102 548.93 73.9102C548.93 72.7102 548.33 71.9102 547.23 71.3102C546.13 70.7102 544.33 70.1102 541.93 69.4102C539.63 68.8102 537.73 68.1102 536.23 67.5102C534.73 66.9102 533.53 66.0102 532.43 64.7102C531.33 63.5102 530.83 61.8102 530.83 59.8102C530.83 58.2102 531.33 56.6102 532.33 55.3102C533.33 53.9102 534.73 52.9102 536.53 52.1102C538.33 51.3102 540.43 50.9102 542.83 50.9102C546.33 50.9102 549.23 51.8102 551.33 53.6102C553.53 55.4102 554.63 57.8102 554.83 60.9102H548.43C548.33 59.5102 547.73 58.4102 546.73 57.6102C545.73 56.8102 544.33 56.4102 542.63 56.4102C540.93 56.4102 539.63 56.7102 538.73 57.4102C537.83 58.0102 537.43 58.9102 537.43 59.9102C537.43 60.7102 537.73 61.4102 538.33 62.0102C538.93 62.6102 539.63 63.0102 540.53 63.3102C541.43 63.6102 542.63 64.0102 544.33 64.5102C546.53 65.1102 548.43 65.7102 549.83 66.3102C551.23 66.9102 552.53 67.8102 553.53 69.0102C554.53 70.2102 555.13 71.8102 555.13 73.8102C555.13 75.6102 554.63 77.1102 553.63 78.5102C552.63 79.9102 551.23 81.0102 549.53 81.8102C547.73 82.6102 545.63 83.0102 543.23 83.0102C540.93 83.0102 538.73 82.5102 536.83 81.7102Z" fill="#3C3C3C"/>
<path d="M68.3301 81.1094L72.9301 86.8094C72.9301 86.8094 68.8301 92.8094 70.9301 95.4094C73.0301 98.0094 79.5301 94.9094 79.5301 94.9094C79.5301 94.9094 75.4301 100.909 77.5301 103.509C79.6301 106.109 86.1301 103.009 86.1301 103.009C86.1301 103.009 82.0301 109.009 84.1301 111.609C86.2301 114.209 92.7301 111.109 92.7301 111.109C92.7301 111.109 88.6301 117.109 90.7301 119.709C92.8301 122.309 99.3301 119.209 99.3301 119.209C100.63 118.909 99.1301 120.609 98.2301 122.909C97.3301 125.209 98.4301 124.909 98.4301 124.909C103.13 122.609 105.53 117.009 104.13 115.309C102.73 113.609 97.7301 114.909 95.6301 115.509C97.9301 112.409 98.9301 108.909 97.5301 107.209C96.1301 105.509 91.1301 106.909 89.1301 107.409C91.4301 104.309 92.3301 100.809 90.9301 99.1094C89.5301 97.4094 84.5301 98.8094 82.5301 99.3094C84.8301 96.2094 85.7301 92.7094 84.3301 91.0094C82.9301 89.3094 77.9301 90.6094 75.8301 91.2094C79.4301 86.8094 78.1301 83.4094 78.1301 83.4094L73.0301 77.1094" fill="#CDCDCD"/>
<path d="M98.33 125.908C98.03 125.908 97.73 125.808 97.43 125.508C96.83 124.808 97.13 123.708 97.53 122.708C97.83 121.908 98.23 121.108 98.53 120.508C96.33 121.308 92.03 122.608 90.13 120.208C88.53 118.208 89.73 114.908 90.83 112.708C88.53 113.408 85.13 114.108 83.53 112.108C81.93 110.108 83.13 106.808 84.23 104.608C81.93 105.308 78.53 106.008 76.93 104.008C75.33 102.008 76.53 98.7085 77.63 96.5085C75.33 97.2085 71.93 97.9085 70.33 95.9085C68.23 93.3085 70.93 88.5085 71.93 86.8085L67.73 81.6085C67.43 81.2085 67.53 80.7085 67.83 80.4085C68.23 80.1085 68.73 80.2085 69.03 80.5085L73.63 86.2085C73.83 86.5085 73.83 86.9085 73.63 87.2085C72.63 88.6085 70.23 93.1085 71.63 94.8085C73.03 96.5085 77.73 94.8085 79.23 94.1085C79.53 93.9085 79.93 94.0085 80.23 94.3085C80.43 94.6085 80.53 95.0085 80.33 95.3085C79.33 96.7085 76.93 101.208 78.33 102.908C79.73 104.608 84.43 102.908 85.93 102.208C86.23 102.008 86.63 102.108 86.93 102.408C87.13 102.708 87.23 103.108 87.03 103.408C86.03 104.808 83.63 109.308 85.03 111.008C86.43 112.708 91.13 111.008 92.63 110.308C92.93 110.108 93.33 110.208 93.63 110.508C93.83 110.808 93.93 111.208 93.73 111.508C92.73 112.908 90.33 117.408 91.73 119.108C93.13 120.808 97.83 119.108 99.33 118.408C99.43 118.408 99.43 118.408 99.53 118.308C100.23 118.108 100.63 118.408 100.83 118.608C101.33 119.208 100.93 119.908 100.33 121.008C100.03 121.608 99.63 122.308 99.33 123.108C99.23 123.308 99.13 123.508 99.13 123.708C101.73 122.208 103.53 119.508 103.93 117.508C104.13 116.708 104.03 116.108 103.83 115.808C102.83 114.608 98.03 115.808 96.43 116.208L96.13 116.308C95.83 116.408 95.43 116.308 95.23 116.008C95.03 115.708 95.03 115.308 95.23 115.108C97.43 112.208 98.23 109.108 97.13 107.808C96.13 106.608 91.63 107.708 89.93 108.208C89.73 108.208 89.63 108.308 89.53 108.308C89.23 108.408 88.83 108.308 88.63 108.008C88.43 107.708 88.43 107.308 88.63 107.108C90.83 104.208 91.53 101.108 90.53 99.8085C89.53 98.6085 85.03 99.7085 83.33 100.208C83.13 100.208 83.03 100.308 82.93 100.308C82.63 100.408 82.23 100.308 82.03 100.008C81.83 99.7085 81.83 99.3085 82.03 99.1085C84.23 96.2085 84.93 93.1085 83.93 91.8085C82.93 90.6085 78.13 91.8085 76.53 92.2085L76.23 92.3085C75.93 92.4085 75.53 92.2085 75.33 91.9085C75.13 91.6085 75.13 91.2085 75.43 90.9085C78.33 87.4085 77.73 84.6085 77.63 84.0085L72.63 77.9085C72.33 77.5085 72.43 77.0085 72.73 76.7085C73.13 76.4085 73.63 76.5085 73.93 76.8085L79.03 83.1085C79.13 83.2085 79.13 83.2085 79.13 83.3085C79.23 83.4085 80.23 86.3085 78.03 90.1085C81.13 89.4085 84.03 89.2085 85.23 90.7085C86.73 92.5085 86.03 95.6085 84.53 98.3085C87.53 97.6085 90.53 97.3085 91.83 98.9085C93.33 100.708 92.63 103.808 91.13 106.508C94.13 105.808 97.13 105.508 98.43 107.108C99.73 108.708 99.43 111.608 97.73 114.608C100.93 113.908 103.83 113.708 105.03 115.208C105.63 115.908 105.73 117.008 105.43 118.308C104.83 120.808 102.63 124.308 99.03 126.008H98.93C98.53 125.908 98.43 125.908 98.33 125.908Z" fill="#666666"/>
<g opacity="0.7">
<path d="M98.4301 118.809C96.5301 119.609 92.6301 120.809 91.3301 119.309C90.1301 117.909 91.6302 114.609 92.7302 112.609C91.8302 114.509 91.2301 116.909 92.3301 118.309C93.6301 119.909 96.4301 119.409 98.4301 118.809Z" fill="white"/>
</g>
<g opacity="0.7">
<path d="M99.9301 121.509C99.5301 122.509 99.5301 123.109 99.6301 123.309C99.3301 123.509 99.1301 123.709 98.8301 123.909C98.8301 123.709 98.9301 123.509 99.0301 123.309C99.3301 122.509 99.7301 121.809 100.03 121.209C100.13 121.009 100.23 120.809 100.33 120.609C100.13 120.909 100.03 121.209 99.9301 121.509Z" fill="white"/>
</g>
<g opacity="0.7">
<path d="M91.83 110.71C89.93 111.51 86.03 112.71 84.73 111.21C83.53 109.81 85.03 106.51 86.13 104.51C85.23 106.41 84.63 108.81 85.73 110.21C87.03 111.71 89.83 111.31 91.83 110.71Z" fill="white"/>
</g>
<g opacity="0.7">
<path d="M85.2302 102.509C83.3302 103.309 79.4302 104.509 78.1302 103.009C76.9302 101.609 78.4302 98.2086 79.5302 96.3086C78.6302 98.2086 78.0302 100.609 79.1302 102.009C80.4302 103.609 83.2302 103.209 85.2302 102.509Z" fill="white"/>
</g>
<g opacity="0.7">
<path d="M78.6301 94.409C76.7301 95.209 72.8301 96.409 71.5301 94.909C70.3301 93.509 71.8301 90.209 72.9301 88.209C72.0301 90.109 71.4301 92.509 72.5301 93.909C73.8301 95.509 76.6301 95.009 78.6301 94.409Z" fill="white"/>
</g>
<path d="M117.23 78.909H43.13C34.83 78.909 28.03 72.109 28.03 63.809C28.03 55.509 34.83 48.709 43.13 48.709H117.33C125.63 48.709 132.43 55.509 132.43 63.809C132.33 72.109 125.63 78.909 117.23 78.909Z" fill="#CDCDCD"/>
<path d="M117.23 80.1098H43.1301C34.1301 80.1098 26.8301 72.8098 26.8301 63.8098C26.8301 54.8098 34.1301 47.5098 43.1301 47.5098H117.33C126.33 47.5098 133.63 54.8098 133.63 63.8098C133.63 72.8098 126.23 80.1098 117.23 80.1098ZM43.1301 49.9098C35.5301 49.9098 29.2301 56.1098 29.2301 63.8098C29.2301 71.5098 35.4301 77.7098 43.1301 77.7098H117.33C124.93 77.7098 131.23 71.5098 131.23 63.8098C131.23 56.2098 125.03 49.9098 117.33 49.9098H43.1301Z" fill="#666666"/>
<path d="M99.6301 65.9086L101.23 61.9086C101.43 61.4086 101.13 60.8086 100.63 60.6086L97.4301 59.6086C96.9301 59.4086 96.6301 58.9086 96.8301 58.3086L98.0301 55.2086C98.2301 54.7086 97.9301 54.1086 97.4301 53.9086L94.2301 52.9086C93.7301 52.7086 93.4301 52.2086 93.6301 51.6086L94.8301 48.5086C95.0301 48.0086 94.7301 47.4086 94.2301 47.2086L91.0301 46.2086C90.5301 46.0086 90.2301 45.5086 90.4301 44.9086L91.6301 41.8086C91.8301 41.3086 91.5301 40.7086 91.0301 40.5086L87.8301 39.5086C87.3301 39.3086 87.0301 38.8086 87.2301 38.2086L88.4301 35.1086C88.6301 34.6086 88.3301 34.0086 87.8301 33.8086L84.6301 32.8086C84.1301 32.6086 83.8301 32.1086 84.0301 31.5086L85.2301 28.4086C85.4301 27.9086 85.1301 27.3086 84.6301 27.1086L81.4301 26.1086C80.9301 25.9086 80.6301 25.4086 80.8301 24.8086L82.0301 21.7086C82.2301 21.2086 81.9301 20.6086 81.4301 20.4086L78.2301 19.4086C77.7301 19.2086 77.4301 18.7086 77.6301 18.1086L78.8301 15.0086C79.0301 14.5086 78.7301 13.9086 78.2301 13.7086L75.0301 12.7086C74.5301 12.5086 74.2301 12.0086 74.4301 11.5086C74.7301 10.6086 75.5301 10.0086 76.4301 9.90864L80.4301 9.30864C84.6301 8.70864 88.7301 10.6086 91.0301 14.2086L117.33 56.2086L99.6301 65.9086Z" fill="#CDCDCD"/>
<path d="M97.3301 68.5096L100.03 61.7096L97.1301 60.8096C96.5301 60.6096 96.0301 60.2096 95.8301 59.7096C95.5301 59.2096 95.5301 58.5096 95.7301 58.0096L96.8301 55.2096L93.9301 54.3096C93.3301 54.1096 92.8301 53.7096 92.6301 53.2096C92.3301 52.7096 92.3301 52.0096 92.5301 51.5096L93.6301 48.7096L90.7301 47.8096C90.1301 47.6096 89.6301 47.2096 89.4301 46.7096C89.1301 46.2096 89.1301 45.5096 89.3301 45.0096L90.4301 42.2096L87.5301 41.3096C86.9301 41.1096 86.4301 40.7096 86.2301 40.2096C85.9301 39.7096 85.9301 39.0096 86.1301 38.5096L87.2301 35.7096L84.3301 34.8096C83.7301 34.6096 83.2301 34.2096 83.0301 33.7096C82.7301 33.2096 82.7301 32.5096 82.9301 32.0096L84.0301 29.2096L81.1301 28.3096C80.5301 28.1096 80.0301 27.7096 79.8301 27.2096C79.6301 26.7096 79.5301 26.0096 79.7301 25.5096L80.8301 22.7096L77.9301 21.8096C77.3301 21.6096 76.8301 21.2096 76.6301 20.7096C76.3301 20.2096 76.3301 19.5096 76.5301 19.0096L77.6301 16.2096L74.7301 15.3096C74.1301 15.1096 73.7301 14.7096 73.4301 14.2096C73.1301 13.7096 73.1301 13.0096 73.3301 12.5096C73.8301 11.2096 74.9301 10.3096 76.3301 10.1096L80.3301 9.50959C85.0301 8.80959 89.6301 11.0096 92.1301 15.0096L119.23 58.2096L97.3301 68.5096ZM98.1301 58.6096L101.03 59.5096C101.63 59.7096 102.13 60.1096 102.33 60.6096C102.63 61.1096 102.63 61.8096 102.43 62.3096L102.03 63.3096L116.23 56.2096L90.6301 15.3096C88.6301 12.1096 84.9301 10.4096 81.2301 11.0096L77.2301 11.6096C76.8301 11.7096 76.5301 11.9096 76.3301 12.2096L79.2301 13.1096C79.8301 13.3096 80.3301 13.7096 80.5301 14.2096C80.8301 14.7096 80.8301 15.4096 80.6301 15.9096L79.5301 18.7096L82.4301 19.6096C83.0301 19.8096 83.5301 20.2096 83.7301 20.7096C84.0301 21.2096 84.0301 21.9096 83.8301 22.4096L82.7301 25.2096L85.6301 26.1096C86.2301 26.3096 86.7301 26.7096 86.9301 27.2096C87.2301 27.7096 87.2301 28.4096 87.0301 28.9096L85.9301 31.7096L88.8301 32.6096C89.4301 32.8096 89.9301 33.2096 90.1301 33.7096C90.4301 34.2096 90.4301 34.9096 90.2301 35.4096L89.1301 38.2096L92.0301 39.1096C92.6301 39.3096 93.1301 39.7096 93.3301 40.2096C93.6301 40.7096 93.6301 41.4096 93.4301 41.9096L92.3301 44.7096L95.2301 45.6096C95.8301 45.8096 96.3301 46.2096 96.5301 46.7096C96.8301 47.2096 96.8301 47.9096 96.6301 48.4096L95.5301 51.2096L98.4301 52.1096C99.0301 52.3096 99.5301 52.7096 99.7301 53.2096C100.03 53.7096 100.03 54.4096 99.8301 54.9096L98.1301 58.6096Z" fill="#666666"/>
<g opacity="0.7">
<path d="M102.43 62.4094C102.63 61.8094 102.63 61.2094 102.33 60.7094C102.03 60.2094 101.63 59.7094 101.03 59.6094L98.13 58.7094L99.23 55.9094C99.43 55.3094 99.43 54.7094 99.13 54.2094C98.83 53.7094 98.43 53.2094 97.83 53.1094L94.93 52.2094L96.03 49.4094C96.23 48.8094 96.23 48.2094 95.93 47.7094C95.63 47.2094 95.23 46.7094 94.63 46.6094L91.73 45.7094L92.83 42.9094C93.03 42.3094 93.03 41.7094 92.73 41.2094C92.43 40.7094 92.03 40.2094 91.43 40.1094L88.53 39.2094L89.63 36.4094C89.83 35.8094 89.83 35.2094 89.53 34.7094C89.23 34.2094 88.83 33.7094 88.23 33.6094L85.33 32.7094L86.43 29.9094C86.63 29.3094 86.63 28.7094 86.33 28.2094C86.03 27.7094 85.63 27.2094 85.03 27.1094L82.13 26.2094L83.23 23.4094C83.43 22.8094 83.43 22.2094 83.13 21.7094C82.83 21.2094 82.43 20.7094 81.83 20.6094L78.93 19.7094L80.03 16.9094C80.23 16.3094 80.23 15.7094 79.93 15.2094C79.63 14.7094 79.23 14.2094 78.63 14.1094L75.73 13.2094C75.93 12.9094 76.23 12.7094 76.63 12.6094L80.63 12.0094C81.63 11.8094 82.73 11.9094 83.73 12.1094C82.63 13.0094 81.73 14.3094 82.33 16.4094C83.33 20.1094 98.73 52.1094 104.63 64.1094L100.83 66.0094L102.43 62.4094Z" fill="white"/>
</g>
<path d="M117.23 84.2098H43.13C34.83 84.2098 28.03 77.4098 28.03 69.1098C28.03 60.8098 34.83 54.0098 43.13 54.0098H117.33C125.63 54.0098 132.43 60.8098 132.43 69.1098C132.33 77.4098 125.63 84.2098 117.23 84.2098Z" fill="#CDCDCD"/>
<path d="M117.23 85.409H43.1301C34.1301 85.409 26.8301 78.109 26.8301 69.109C26.8301 60.109 34.1301 52.709 43.1301 52.709H117.33C126.33 52.709 133.63 60.009 133.63 69.009C133.63 78.009 126.23 85.409 117.23 85.409ZM43.1301 55.209C35.5301 55.209 29.2301 61.409 29.2301 69.109C29.2301 76.809 35.4301 82.909 43.1301 82.909H117.33C124.93 82.909 131.23 76.709 131.23 69.009C131.23 61.309 125.03 55.109 117.33 55.109H43.1301V55.209Z" fill="#666666"/>
<path d="M30.5301 75.1093L8.13012 47.1093C6.23012 44.7093 4.43012 42.1093 3.03012 39.3093C1.93012 37.2093 1.13012 35.0093 1.23012 33.9093C1.63012 31.3093 11.0301 31.2093 18.4301 35.4093C19.2301 35.8093 17.5301 37.2093 14.7301 39.5093C14.2301 39.9093 14.1301 40.7093 14.5301 41.2093C16.2301 43.5093 19.0301 47.4093 19.0301 47.4093C19.0301 47.4093 21.9301 51.9093 24.8301 49.6093C27.7301 47.2093 24.3301 43.2093 22.4301 42.7093C20.5301 42.2093 23.8301 40.3093 28.0301 42.3093C32.2301 44.3093 37.5301 54.2093 38.0301 64.8093L30.5301 75.1093Z" fill="#CDCDCD"/>
<path d="M30.53 77.2095L7.13003 47.9095C5.13003 45.3095 3.33003 42.6095 1.93003 39.9095C-0.0699667 36.0095 -0.0699644 34.5095 0.0300356 33.7095C0.130036 33.1095 0.530035 32.2095 1.83003 31.6095C5.13003 30.0095 12.83 30.8095 19.03 34.3095C19.53 34.6095 19.83 35.0095 19.83 35.5095C19.93 36.7095 18.83 37.6095 16.13 39.9095L15.43 40.5095C17.13 42.8095 19.93 46.7095 19.93 46.7095V46.8095C20.23 47.3095 21.53 48.9095 22.63 49.1095C22.93 49.1095 23.33 49.2095 23.83 48.7095C24.43 48.2095 24.63 47.7095 24.43 47.0095C24.13 45.5095 22.53 44.2095 21.83 44.0095C20.73 43.7095 20.43 43.0095 20.43 42.7095C20.33 42.1095 20.53 41.5095 21.13 41.1095C22.33 40.1095 25.33 39.9095 28.33 41.4095C32.93 43.7095 38.43 53.9095 39.03 64.9095V65.3095L30.53 77.2095ZM2.53004 34.2095C2.53004 34.4095 2.53003 35.5095 4.13003 38.8095C5.43003 41.4095 7.13004 44.0095 9.03004 46.4095L30.43 73.1095L36.73 64.5095C36.43 59.9095 35.23 55.1095 33.23 51.0095C31.43 47.3095 29.23 44.4095 27.43 43.5095C26.43 43.0095 25.53 42.8095 24.73 42.7095C25.83 43.6095 26.73 45.0095 27.13 46.4095C27.43 48.0095 26.93 49.5095 25.63 50.6095C24.63 51.4095 23.53 51.7095 22.43 51.5095C20.03 51.1095 18.33 48.6095 18.03 48.1095C17.83 47.8095 15.23 44.1095 13.63 41.9095C12.83 40.8095 13.03 39.4095 14.03 38.5095L14.73 37.9095C15.53 37.2095 16.53 36.4095 17.03 35.9095C13.03 33.9095 7.13004 32.5095 3.53004 33.5095C2.83004 33.9095 2.53004 34.1095 2.53004 34.2095Z" fill="#666666"/>
<g opacity="0.7">
<path d="M32.1301 71.7086L30.5301 73.1086L9.0301 46.4086C7.1301 44.0086 5.4301 41.4086 4.1301 38.8086C2.4301 35.5086 2.4301 34.4086 2.5301 34.2086C2.6301 34.1086 2.8301 33.9086 3.5301 33.7086C4.4301 33.4086 5.5301 33.3086 6.6301 33.4086C5.9301 33.9086 5.6301 34.6086 5.5301 35.0086C5.4301 35.5086 5.6301 36.0086 5.8301 36.5086C6.2301 37.6086 6.8301 38.7086 7.4301 39.8086C9.5301 43.8086 12.4301 47.1086 15.2301 50.6086C17.2301 53.1086 19.3301 55.7086 21.3301 58.2086C23.6301 61.1086 26.0301 64.0086 28.3301 67.0086C29.5301 68.5086 30.8301 70.0086 32.1301 71.7086Z" fill="white"/>
</g>
<path d="M118.03 66.6086C118.03 66.6086 118.23 66.7086 127.73 38.6086C128.03 37.6086 128.43 36.7086 128.73 35.7086C130.33 31.1086 131.93 26.5086 133.73 22.0086C134.93 18.9086 136.23 15.7086 137.63 12.6086C138.53 10.6086 139.53 8.60863 140.63 6.70863C141.03 6.10863 141.33 5.50863 141.73 4.90863C142.13 4.30863 142.53 3.70863 142.93 3.20863C143.43 2.60863 144.03 2.00863 144.63 1.40863C144.83 1.20863 145.03 1.00863 145.23 1.10863C145.63 1.10863 145.73 1.60863 145.83 1.90863C147.03 7.70863 147.93 13.5086 148.73 19.3086C149.23 23.3086 148.83 27.3086 147.43 31.1086L130.73 76.5086L118.03 66.6086Z" fill="#CDCDCD"/>
<path d="M131.23 78.6092L111.63 63.1092L117.33 65.1092C118.13 63.0092 120.23 56.8092 126.53 38.3092C126.83 37.3092 127.23 36.4092 127.53 35.4092C129.33 30.2092 130.93 25.7092 132.53 21.7092C133.93 18.0092 135.23 15.0092 136.43 12.3092C137.53 9.9092 138.43 8.0092 139.43 6.3092C139.83 5.6092 140.23 5.0092 140.63 4.4092C141.03 3.7092 141.53 3.2092 141.93 2.6092C142.43 2.0092 142.93 1.5092 143.33 1.0092C143.43 0.9092 143.53 0.809201 143.63 0.709201C143.83 0.509201 144.43 -0.0907999 145.23 0.00920014C145.73 0.1092 146.53 0.409203 146.83 1.8092C147.93 7.4092 148.93 13.1092 149.73 19.3092C150.23 23.5092 149.83 27.7092 148.33 31.7092L131.23 78.6092ZM119.43 66.2092L130.03 74.5092L146.13 30.7092C147.43 27.1092 147.83 23.2092 147.43 19.5092C146.73 13.7092 145.83 8.3092 144.73 3.1092C144.43 3.4092 144.13 3.7092 143.83 4.1092C143.43 4.6092 143.03 5.1092 142.63 5.7092C142.33 6.2092 141.93 6.8092 141.53 7.4092C140.63 9.0092 139.73 10.9092 138.63 13.2092C137.43 15.9092 136.13 18.9092 134.73 22.5092C133.13 26.5092 131.53 31.0092 129.73 36.1092C129.43 37.1092 129.03 38.0092 128.73 39.0092C124.83 50.4092 122.03 58.8092 120.33 63.4092C120.03 64.7092 119.73 65.6092 119.43 66.2092Z" fill="#666666"/>
<g opacity="0.7">
<path d="M145.93 9.60938C145.43 10.1094 144.93 10.6094 144.53 11.1094C144.13 11.6094 143.63 12.2094 143.33 12.8094C142.93 13.4094 142.53 14.0094 142.23 14.6094C141.13 16.5094 140.23 18.5094 139.23 20.5094C137.83 23.6094 136.53 26.7094 135.33 29.9094C133.53 34.4094 131.93 39.0094 130.33 43.6094C130.03 44.6094 129.63 45.5094 129.33 46.5094C125.63 57.4094 123.33 64.1094 121.93 68.1094L119.53 66.2094C119.73 65.6094 120.03 64.7094 120.53 63.4094C122.13 58.8094 125.03 50.4094 128.93 39.0094C129.23 38.0094 129.63 37.1094 129.93 36.1094C131.73 31.0094 133.33 26.5094 134.93 22.5094C136.33 18.9094 137.53 15.9094 138.83 13.2094C139.93 10.9094 140.83 9.00937 141.73 7.40937C142.13 6.70937 142.43 6.20937 142.83 5.70937C143.23 5.10937 143.63 4.60938 144.03 4.10938C144.33 3.80937 144.63 3.40938 144.93 3.10938C145.13 5.20937 145.53 7.40937 145.93 9.60938Z" fill="white"/>
</g>
<path d="M117.23 89.409H43.13C34.83 89.409 28.03 82.609 28.03 74.309C28.03 66.009 34.83 59.209 43.13 59.209H117.33C125.63 59.209 132.43 66.009 132.43 74.309C132.33 82.709 125.63 89.409 117.23 89.409Z" fill="#F0512F"/>
<path d="M117.23 90.6098H43.1301C34.1301 90.6098 26.8301 83.3098 26.8301 74.3098C26.8301 65.3098 34.1301 58.0098 43.1301 58.0098H117.33C126.33 58.0098 133.63 65.3098 133.63 74.3098C133.63 83.3098 126.23 90.6098 117.23 90.6098ZM43.1301 60.5098C35.5301 60.5098 29.2301 66.7098 29.2301 74.4098C29.2301 82.0098 35.4301 88.3098 43.1301 88.3098H117.33C124.93 88.3098 131.23 82.1098 131.23 74.4098C131.23 66.7098 125.03 60.5098 117.33 60.5098H43.1301Z" fill="#666666"/>
<g opacity="0.5">
<path d="M129.63 68.1098C127.23 65.2098 123.53 63.4098 119.53 63.4098H40.83C36.83 63.4098 33.13 65.2098 30.73 68.1098C33.03 63.6098 37.73 60.5098 43.13 60.5098H117.33C122.63 60.5098 127.33 63.6098 129.63 68.1098Z" fill="white"/>
</g>
<g opacity="0.3">
<path d="M129.63 80.6094C127.23 83.5094 123.53 85.3094 119.53 85.3094H40.83C36.83 85.3094 33.13 83.5094 30.73 80.6094C33.03 85.1094 37.73 88.2094 43.13 88.2094H117.33C122.63 88.2094 127.33 85.1094 129.63 80.6094Z" fill="#996D68"/>
</g>
<path d="M70.0299 79.8094C69.9299 79.7094 69.9299 79.7094 69.9299 79.6094H70.0299C70.1299 79.7094 70.1299 79.7094 70.0299 79.8094Z" fill="#666666"/>
<path d="M136.63 49.1086L141.03 37.8086C141.03 37.8086 139.03 37.9086 137.23 42.2086C135.53 46.6086 136.63 49.1086 136.63 49.1086Z" fill="#666666"/>
<path d="M102.73 39.7086L96.4302 29.3086C96.4302 29.3086 95.3301 31.0086 97.6301 35.0086C100.03 39.0086 102.73 39.7086 102.73 39.7086Z" fill="#666666"/>
<path d="M38.6301 76.909V67.209H41.7301V76.309C41.7301 77.809 42.9301 78.909 44.5301 78.909C46.1301 78.909 47.3301 77.809 47.3301 76.309V67.209H50.4301V76.909C50.4301 79.609 47.8301 81.709 44.4301 81.709C41.2301 81.709 38.6301 79.609 38.6301 76.909Z" fill="white"/>
<path d="M62.1301 70.009H58.5301V81.509H55.4301V70.009H51.8301V67.209H62.1301V70.009Z" fill="white"/>
<path d="M63.53 67.209H66.63V81.509H63.53V67.209Z" fill="white"/>
<path d="M77.43 78.709V81.509H69.53V67.209H72.63V78.709H77.43Z" fill="white"/>
<path d="M79.03 67.209H82.13V81.509H79.03V67.209Z" fill="white"/>
<path d="M93.83 70.009H90.23V81.509H87.13V70.009H83.53V67.209H93.83V70.009Z" fill="white"/>
<path d="M95.2302 67.209H98.3302V81.509H95.2302V67.209Z" fill="white"/>
<path d="M104.53 69.909V72.909H109.23V75.709H104.53V78.709H110.03V81.509H101.43V67.209H110.03V70.009H104.53V69.909Z" fill="white"/>
<path d="M111.33 78.5094L113.93 76.9094C114.43 78.0094 115.43 78.8094 116.83 78.8094C117.93 78.8094 118.63 78.3094 118.63 77.5094C118.63 75.0094 112.03 76.2094 112.03 71.3094C112.03 68.4094 114.33 67.1094 116.63 67.1094C118.43 67.1094 120.03 67.9094 121.03 69.1094L118.93 71.1094C118.23 70.3094 117.43 69.9094 116.63 69.9094C115.83 69.9094 115.23 70.3094 115.23 71.1094C115.23 73.6094 121.83 72.3094 121.83 77.6094C121.83 80.3094 119.53 81.8094 116.93 81.8094C114.33 81.7094 112.33 80.2094 111.33 78.5094Z" fill="white"/>
</svg>
